<?xml version="1.0" encoding="UTF-8"?>
<svg id="Calque_1" data-name="Calque 1" xmlns="http://www.w3.org/2000/svg" viewBox="0 0 2000 2000">
  <defs>
    <style>
      .cls-1 {
        fill: #4ade80;
      }
    </style>
  </defs>
  <g>
    <path class="cls-1" d="m1237.56,531.54c-.1-58.81-23.04-114.08-64.64-155.67-41.68-41.69-97.1-64.64-156.05-64.64s-114.36,22.95-156.05,64.64c-41.68,41.68-64.63,97.1-64.63,156.05,0,6.45.28,12.86.82,19.22h-.63c-4.28-95.18,31.13-168.11,111.84-214.45,79.65-45.73,159.72-39.63,235.81,11.14,58.75,39.2,96.36,115.01,93.53,183.71Z"/>
    <path class="cls-1" d="m1543.73,1281.03l-107.46-620.64c-10.93-63.14-65.72-109.25-129.8-109.25h-19.59c.45-6.35.68-12.76.68-19.22,0-149.5-121.19-270.69-270.69-270.69s-270.68,121.19-270.68,270.69c0,6.46.23,12.87.68,19.22h-44.28c-65.63,0-121.25,48.32-130.43,113.3l-87.66,620.7c-11.2,79.3,50.36,150.16,130.44,150.15l799.01-.06c81.73,0,143.73-73.67,129.78-154.2ZM908.22,336.69c79.65-45.73,159.72-39.63,235.81,11.14,58.75,39.2,96.36,115.01,93.53,183.71v.38c0,6.45-.28,12.86-.82,19.22h-440.36c-4.28-95.18,31.13-168.11,111.84-214.45Zm470.64,975h-303.68l-7.63-12.25c-18.01-28.92-27.53-62.27-27.53-96.43,0-73.95,44.09-137.79,107.36-166.62v145.95h231.48v129.35Zm0-241.67c-37.61-44.03-93.53-71.99-155.86-71.99-45.78,0-88.1,15.08-122.25,40.53-35.6,26.54-62.33,64.35-74.85,108.1-5.13,17.91-7.88,36.82-7.88,56.35,0,39.62,11.3,76.66,30.85,108.06l-137.77-.26c-11.97-34.57-18.02-70.73-18.02-107.8,0-44.51,8.73-87.72,25.95-128.44,3.41-8.06,7.11-15.94,11.13-23.65l-179.66-179.66v439.47h-129.36v-622.41h129.36s.01.01.01.01l261.24,261.24c24.95-20.85,52.7-37.79,82.81-50.53,40.72-17.22,83.93-25.95,128.44-25.95s87.73,8.73,128.44,25.95c9.37,3.96,18.52,8.34,27.42,13.11v157.87Zm0-252.34h-231.48v41.55c-20.94,4.59-41.45,11.12-61.39,19.55-24.15,10.21-46.87,22.96-67.97,38.11v-228.57h360.84v129.36Z"/>
    <path class="cls-1" d="m1144.03,347.83c-76.09-50.77-156.16-56.87-235.81-11.14-80.71,46.34-116.12,119.27-111.84,214.45h.63c-.54-6.36-.82-12.77-.82-19.22,0-58.95,22.95-114.37,64.63-156.05,41.69-41.69,97.11-64.64,156.05-64.64s114.37,22.95,156.05,64.64c41.6,41.59,64.54,96.86,64.64,155.67,2.83-68.7-34.78-144.51-93.53-183.71Z"/>
  </g>
  <rect class="cls-1" x="1018.02" y="688.31" width="129.36" height=".01"/>
</svg>